<mxfile host="app.diagrams.net" modified="2023-11-12T13:21:15.245Z" agent="Mozilla/5.0 (Windows NT 10.0; Win64; x64) AppleWebKit/537.36 (KHTML, like Gecko) Chrome/119.0.0.0 Safari/537.36" etag="4dhnaLv62PMhT9z8TYbP" version="22.1.0" type="device">
  <diagram name="Page-1" id="7MVNyOXIBiSPE8nntl3P">
    <mxGraphModel dx="1434" dy="746" grid="1" gridSize="10" guides="1" tooltips="1" connect="1" arrows="1" fold="1" page="1" pageScale="1" pageWidth="827" pageHeight="1169" math="0" shadow="0">
      <root>
        <mxCell id="0" />
        <mxCell id="1" parent="0" />
        <mxCell id="dZ8-ul-q5iRv5-zgcZM_-1" value="&lt;h1&gt;RAN&lt;/h1&gt;" style="text;html=1;strokeColor=none;fillColor=none;spacing=5;spacingTop=-20;whiteSpace=wrap;overflow=hidden;rounded=0;" vertex="1" parent="1">
          <mxGeometry x="10" y="10" width="70" height="40" as="geometry" />
        </mxCell>
        <mxCell id="dZ8-ul-q5iRv5-zgcZM_-2" value="&lt;h1&gt;Core Network (CN)&lt;/h1&gt;" style="text;html=1;strokeColor=none;fillColor=none;spacing=5;spacingTop=-20;whiteSpace=wrap;overflow=hidden;rounded=0;" vertex="1" parent="1">
          <mxGeometry x="320" y="10" width="350" height="40" as="geometry" />
        </mxCell>
        <mxCell id="dZ8-ul-q5iRv5-zgcZM_-3" value="" style="shape=image;html=1;verticalAlign=top;verticalLabelPosition=bottom;labelBackgroundColor=#ffffff;imageAspect=0;aspect=fixed;image=https://cdn1.iconfinder.com/data/icons/iconoir-vol-1/24/antenna-128.png" vertex="1" parent="1">
          <mxGeometry x="10" y="102" width="108" height="108" as="geometry" />
        </mxCell>
        <mxCell id="dZ8-ul-q5iRv5-zgcZM_-4" value="" style="html=1;whiteSpace=wrap;shape=isoCube2;backgroundOutline=1;isoAngle=15;" vertex="1" parent="1">
          <mxGeometry x="118" y="162" width="37.8" height="42" as="geometry" />
        </mxCell>
        <mxCell id="dZ8-ul-q5iRv5-zgcZM_-5" value="" style="endArrow=none;html=1;rounded=0;entryX=0.026;entryY=0.952;entryDx=0;entryDy=0;entryPerimeter=0;exitX=0.75;exitY=1;exitDx=0;exitDy=0;" edge="1" parent="1" source="dZ8-ul-q5iRv5-zgcZM_-3" target="dZ8-ul-q5iRv5-zgcZM_-4">
          <mxGeometry width="50" height="50" relative="1" as="geometry">
            <mxPoint x="20" y="196" as="sourcePoint" />
            <mxPoint x="70" y="146" as="targetPoint" />
          </mxGeometry>
        </mxCell>
        <mxCell id="dZ8-ul-q5iRv5-zgcZM_-6" value="" style="sketch=0;points=[[0.5,0,0],[1,0.5,0],[0.5,1,0],[0,0.5,0],[0.145,0.145,0],[0.8555,0.145,0],[0.855,0.8555,0],[0.145,0.855,0]];verticalLabelPosition=bottom;html=1;verticalAlign=top;aspect=fixed;align=center;pointerEvents=1;shape=mxgraph.cisco19.rect;prIcon=router;fillColor=#FAFAFA;strokeColor=#005073;" vertex="1" parent="1">
          <mxGeometry x="395" y="195" width="80" height="80" as="geometry" />
        </mxCell>
        <mxCell id="dZ8-ul-q5iRv5-zgcZM_-7" value="&lt;h1&gt;Service Gateway&lt;/h1&gt;&lt;p&gt;Router on the RAN side. Big switch connected to multple base stations&lt;/p&gt;" style="text;html=1;strokeColor=none;fillColor=none;spacing=5;spacingTop=-20;whiteSpace=wrap;overflow=hidden;rounded=0;" vertex="1" parent="1">
          <mxGeometry x="320" y="102" width="235" height="120" as="geometry" />
        </mxCell>
        <mxCell id="dZ8-ul-q5iRv5-zgcZM_-8" value="" style="shape=image;html=1;verticalAlign=top;verticalLabelPosition=bottom;labelBackgroundColor=#ffffff;imageAspect=0;aspect=fixed;image=https://cdn1.iconfinder.com/data/icons/iconoir-vol-1/24/antenna-128.png" vertex="1" parent="1">
          <mxGeometry x="104.9" y="230" width="108" height="108" as="geometry" />
        </mxCell>
        <mxCell id="dZ8-ul-q5iRv5-zgcZM_-9" value="" style="html=1;whiteSpace=wrap;shape=isoCube2;backgroundOutline=1;isoAngle=15;" vertex="1" parent="1">
          <mxGeometry x="170" y="350" width="37.8" height="42" as="geometry" />
        </mxCell>
        <mxCell id="dZ8-ul-q5iRv5-zgcZM_-10" value="" style="endArrow=none;html=1;rounded=0;entryX=0.5;entryY=0;entryDx=0;entryDy=0;entryPerimeter=0;exitX=0.75;exitY=1;exitDx=0;exitDy=0;" edge="1" parent="1" source="dZ8-ul-q5iRv5-zgcZM_-8" target="dZ8-ul-q5iRv5-zgcZM_-9">
          <mxGeometry width="50" height="50" relative="1" as="geometry">
            <mxPoint x="150" y="334" as="sourcePoint" />
            <mxPoint x="200" y="284" as="targetPoint" />
          </mxGeometry>
        </mxCell>
        <mxCell id="dZ8-ul-q5iRv5-zgcZM_-11" value="" style="shape=image;html=1;verticalAlign=top;verticalLabelPosition=bottom;labelBackgroundColor=#ffffff;imageAspect=0;aspect=fixed;image=https://cdn1.iconfinder.com/data/icons/iconoir-vol-1/24/antenna-128.png" vertex="1" parent="1">
          <mxGeometry x="30" y="330" width="108" height="108" as="geometry" />
        </mxCell>
        <mxCell id="dZ8-ul-q5iRv5-zgcZM_-12" value="" style="html=1;whiteSpace=wrap;shape=isoCube2;backgroundOutline=1;isoAngle=15;" vertex="1" parent="1">
          <mxGeometry x="140" y="438" width="37.8" height="42" as="geometry" />
        </mxCell>
        <mxCell id="dZ8-ul-q5iRv5-zgcZM_-13" value="" style="endArrow=none;html=1;rounded=0;exitX=0.75;exitY=1;exitDx=0;exitDy=0;" edge="1" parent="1" source="dZ8-ul-q5iRv5-zgcZM_-11" target="dZ8-ul-q5iRv5-zgcZM_-12">
          <mxGeometry width="50" height="50" relative="1" as="geometry">
            <mxPoint x="40" y="424" as="sourcePoint" />
            <mxPoint x="90" y="374" as="targetPoint" />
          </mxGeometry>
        </mxCell>
        <mxCell id="dZ8-ul-q5iRv5-zgcZM_-17" value="" style="endArrow=none;html=1;rounded=0;entryX=1;entryY=0.5;entryDx=0;entryDy=0;entryPerimeter=0;exitX=0;exitY=0.5;exitDx=0;exitDy=0;exitPerimeter=0;" edge="1" parent="1" source="dZ8-ul-q5iRv5-zgcZM_-6" target="dZ8-ul-q5iRv5-zgcZM_-4">
          <mxGeometry width="50" height="50" relative="1" as="geometry">
            <mxPoint x="390" y="310" as="sourcePoint" />
            <mxPoint x="440" y="260" as="targetPoint" />
          </mxGeometry>
        </mxCell>
        <mxCell id="dZ8-ul-q5iRv5-zgcZM_-18" value="" style="endArrow=none;html=1;rounded=0;entryX=0;entryY=0;entryDx=37.8;entryDy=9.074977093228384;entryPerimeter=0;exitX=0;exitY=0.5;exitDx=0;exitDy=0;exitPerimeter=0;" edge="1" parent="1" source="dZ8-ul-q5iRv5-zgcZM_-6" target="dZ8-ul-q5iRv5-zgcZM_-9">
          <mxGeometry width="50" height="50" relative="1" as="geometry">
            <mxPoint x="390" y="230" as="sourcePoint" />
            <mxPoint x="166" y="193" as="targetPoint" />
          </mxGeometry>
        </mxCell>
        <mxCell id="dZ8-ul-q5iRv5-zgcZM_-19" value="" style="endArrow=none;html=1;rounded=0;entryX=0;entryY=0;entryDx=37.8;entryDy=9.074977093228384;entryPerimeter=0;exitX=0;exitY=0.5;exitDx=0;exitDy=0;exitPerimeter=0;" edge="1" parent="1" source="dZ8-ul-q5iRv5-zgcZM_-6" target="dZ8-ul-q5iRv5-zgcZM_-12">
          <mxGeometry width="50" height="50" relative="1" as="geometry">
            <mxPoint x="533" y="516" as="sourcePoint" />
            <mxPoint x="295" y="470" as="targetPoint" />
          </mxGeometry>
        </mxCell>
        <mxCell id="dZ8-ul-q5iRv5-zgcZM_-20" value="" style="sketch=0;points=[[0.5,0,0],[1,0.5,0],[0.5,1,0],[0,0.5,0],[0.145,0.145,0],[0.8555,0.145,0],[0.855,0.8555,0],[0.145,0.855,0]];verticalLabelPosition=bottom;html=1;verticalAlign=top;aspect=fixed;align=center;pointerEvents=1;shape=mxgraph.cisco19.rect;prIcon=router;fillColor=#FAFAFA;strokeColor=#005073;" vertex="1" parent="1">
          <mxGeometry x="735" y="195" width="80" height="80" as="geometry" />
        </mxCell>
        <mxCell id="dZ8-ul-q5iRv5-zgcZM_-21" value="&lt;h1&gt;Out Gateway&lt;/h1&gt;&lt;p&gt;CN gateway to reach what&#39;s next&lt;/p&gt;" style="text;html=1;strokeColor=none;fillColor=none;spacing=5;spacingTop=-20;whiteSpace=wrap;overflow=hidden;rounded=0;" vertex="1" parent="1">
          <mxGeometry x="660" y="102" width="235" height="120" as="geometry" />
        </mxCell>
        <mxCell id="dZ8-ul-q5iRv5-zgcZM_-23" value="" style="endArrow=none;html=1;rounded=0;exitX=0;exitY=0.5;exitDx=0;exitDy=0;exitPerimeter=0;entryX=1;entryY=0.5;entryDx=0;entryDy=0;entryPerimeter=0;" edge="1" parent="1" source="dZ8-ul-q5iRv5-zgcZM_-20" target="dZ8-ul-q5iRv5-zgcZM_-6">
          <mxGeometry width="50" height="50" relative="1" as="geometry">
            <mxPoint x="390" y="310" as="sourcePoint" />
            <mxPoint x="440" y="260" as="targetPoint" />
          </mxGeometry>
        </mxCell>
        <mxCell id="dZ8-ul-q5iRv5-zgcZM_-24" value="" style="html=1;whiteSpace=wrap;shape=isoCube2;backgroundOutline=1;isoAngle=15;" vertex="1" parent="1">
          <mxGeometry x="550" y="300" width="140" height="120" as="geometry" />
        </mxCell>
        <mxCell id="dZ8-ul-q5iRv5-zgcZM_-25" value="" style="endArrow=none;html=1;rounded=0;exitX=0;exitY=0;exitDx=0;exitDy=33.61102627121624;exitPerimeter=0;entryX=0.855;entryY=0.8555;entryDx=0;entryDy=0;entryPerimeter=0;" edge="1" parent="1" source="dZ8-ul-q5iRv5-zgcZM_-24" target="dZ8-ul-q5iRv5-zgcZM_-6">
          <mxGeometry width="50" height="50" relative="1" as="geometry">
            <mxPoint x="970" y="458.5" as="sourcePoint" />
            <mxPoint x="710" y="458.5" as="targetPoint" />
          </mxGeometry>
        </mxCell>
        <mxCell id="dZ8-ul-q5iRv5-zgcZM_-26" value="" style="endArrow=none;html=1;rounded=0;entryX=0.145;entryY=0.855;entryDx=0;entryDy=0;entryPerimeter=0;exitX=0;exitY=0;exitDx=140;exitDy=33.61102627121624;exitPerimeter=0;" edge="1" parent="1" source="dZ8-ul-q5iRv5-zgcZM_-24" target="dZ8-ul-q5iRv5-zgcZM_-20">
          <mxGeometry width="50" height="50" relative="1" as="geometry">
            <mxPoint x="390" y="410" as="sourcePoint" />
            <mxPoint x="440" y="360" as="targetPoint" />
          </mxGeometry>
        </mxCell>
        <mxCell id="dZ8-ul-q5iRv5-zgcZM_-27" value="&lt;h1&gt;CN Controller&lt;/h1&gt;&lt;p&gt;The CN big boss&amp;nbsp;ðŸ‘‘&lt;br&gt;Process every incoming packets&lt;/p&gt;" style="text;html=1;strokeColor=none;fillColor=none;spacing=5;spacingTop=-20;whiteSpace=wrap;overflow=hidden;rounded=0;" vertex="1" parent="1">
          <mxGeometry x="640" y="410" width="235" height="120" as="geometry" />
        </mxCell>
        <mxCell id="dZ8-ul-q5iRv5-zgcZM_-28" value="" style="shape=datastore;whiteSpace=wrap;html=1;" vertex="1" parent="1">
          <mxGeometry x="322.5" y="370" width="60" height="60" as="geometry" />
        </mxCell>
        <mxCell id="dZ8-ul-q5iRv5-zgcZM_-29" value="" style="shape=datastore;whiteSpace=wrap;html=1;" vertex="1" parent="1">
          <mxGeometry x="322.5" y="525" width="60" height="60" as="geometry" />
        </mxCell>
        <mxCell id="dZ8-ul-q5iRv5-zgcZM_-30" value="" style="shape=datastore;whiteSpace=wrap;html=1;" vertex="1" parent="1">
          <mxGeometry x="320" y="671" width="60" height="60" as="geometry" />
        </mxCell>
        <mxCell id="dZ8-ul-q5iRv5-zgcZM_-31" value="" style="endArrow=none;html=1;rounded=0;entryX=0;entryY=0;entryDx=0;entryDy=86.38897372878375;entryPerimeter=0;exitX=1;exitY=0.5;exitDx=0;exitDy=0;" edge="1" parent="1" source="dZ8-ul-q5iRv5-zgcZM_-28" target="dZ8-ul-q5iRv5-zgcZM_-24">
          <mxGeometry width="50" height="50" relative="1" as="geometry">
            <mxPoint x="390" y="510" as="sourcePoint" />
            <mxPoint x="440" y="460" as="targetPoint" />
            <Array as="points">
              <mxPoint x="520" y="400" />
            </Array>
          </mxGeometry>
        </mxCell>
        <mxCell id="dZ8-ul-q5iRv5-zgcZM_-32" value="" style="endArrow=none;html=1;rounded=0;entryX=0;entryY=0;entryDx=0;entryDy=86.38897372878375;entryPerimeter=0;exitX=1;exitY=0.5;exitDx=0;exitDy=0;" edge="1" parent="1" source="dZ8-ul-q5iRv5-zgcZM_-29" target="dZ8-ul-q5iRv5-zgcZM_-24">
          <mxGeometry width="50" height="50" relative="1" as="geometry">
            <mxPoint x="390" y="510" as="sourcePoint" />
            <mxPoint x="440" y="460" as="targetPoint" />
            <Array as="points">
              <mxPoint x="520" y="555" />
            </Array>
          </mxGeometry>
        </mxCell>
        <mxCell id="dZ8-ul-q5iRv5-zgcZM_-33" value="" style="endArrow=none;html=1;rounded=0;entryX=0;entryY=0;entryDx=0;entryDy=86.38897372878375;entryPerimeter=0;exitX=1;exitY=0.5;exitDx=0;exitDy=0;" edge="1" parent="1" source="dZ8-ul-q5iRv5-zgcZM_-30" target="dZ8-ul-q5iRv5-zgcZM_-24">
          <mxGeometry width="50" height="50" relative="1" as="geometry">
            <mxPoint x="390" y="410" as="sourcePoint" />
            <mxPoint x="440" y="360" as="targetPoint" />
            <Array as="points">
              <mxPoint x="520" y="700" />
            </Array>
          </mxGeometry>
        </mxCell>
        <mxCell id="dZ8-ul-q5iRv5-zgcZM_-34" value="&lt;h1&gt;Location DB&lt;/h1&gt;&lt;p&gt;Stores an approximate location of every users of the network&lt;br&gt;&lt;/p&gt;" style="text;html=1;strokeColor=none;fillColor=none;spacing=5;spacingTop=-20;whiteSpace=wrap;overflow=hidden;rounded=0;" vertex="1" parent="1">
          <mxGeometry x="320" y="420" width="180" height="86" as="geometry" />
        </mxCell>
        <mxCell id="dZ8-ul-q5iRv5-zgcZM_-35" value="&lt;h1&gt;User DB&lt;/h1&gt;&lt;p&gt;Registers the operator subscribers&lt;br&gt;&lt;/p&gt;" style="text;html=1;strokeColor=none;fillColor=none;spacing=5;spacingTop=-20;whiteSpace=wrap;overflow=hidden;rounded=0;" vertex="1" parent="1">
          <mxGeometry x="320" y="580" width="205" height="86" as="geometry" />
        </mxCell>
        <mxCell id="dZ8-ul-q5iRv5-zgcZM_-36" value="&lt;h1&gt;Facturation DB&lt;/h1&gt;&lt;p&gt;Register the charges of each subscriber.&lt;br&gt;&lt;/p&gt;" style="text;html=1;strokeColor=none;fillColor=none;spacing=5;spacingTop=-20;whiteSpace=wrap;overflow=hidden;rounded=0;" vertex="1" parent="1">
          <mxGeometry x="320" y="731" width="230" height="86" as="geometry" />
        </mxCell>
      </root>
    </mxGraphModel>
  </diagram>
</mxfile>
